<?xml version="1.0" encoding="UTF-8"?>
<svg xmlns="http://www.w3.org/2000/svg" viewBox="0 0 64 64" width="64" height="64">
  <!-- 像素风游戏手柄 SVG -->
  <!-- 主体 -->
  <rect x="16" y="20" width="32" height="24" fill="#333333"/>
  
  <!-- 左侧圆形 -->
  <rect x="8" y="24" width="8" height="16" fill="#333333"/>
  <rect x="4" y="28" width="4" height="8" fill="#333333"/>
  
  <!-- 右侧圆形 -->
  <rect x="48" y="24" width="8" height="16" fill="#333333"/>
  <rect x="56" y="28" width="4" height="8" fill="#333333"/>
  
  <!-- 左侧D-Pad -->
  <rect x="12" y="30" width="8" height="4" fill="#4CAF50"/>
  <rect x="14" y="28" width="4" height="8" fill="#4CAF50"/>
  
  <!-- 右侧按钮 -->
  <rect x="52" y="28" width="4" height="4" fill="#E53935"/>
  <rect x="48" y="28" width="4" height="4" fill="#FFC107"/>
  <rect x="52" y="32" width="4" height="4" fill="#2196F3"/>
  <rect x="48" y="32" width="4" height="4" fill="#9C27B0"/>
  
  <!-- 中间按钮 -->
  <rect x="28" y="24" width="4" height="4" fill="#757575"/>
  <rect x="32" y="24" width="4" height="4" fill="#757575"/>
  
  <!-- 装饰线 -->
  <rect x="20" y="28" width="24" height="2" fill="#5C81A6"/>
  <rect x="20" y="32" width="24" height="2" fill="#5CA65C"/>
  <rect x="20" y="36" width="24" height="2" fill="#A65C5C"/>
  
  <!-- 像素风线条边缘 -->
  <rect x="16" y="18" width="32" height="2" fill="#222222"/>
  <rect x="16" y="44" width="32" height="2" fill="#222222"/>
  <rect x="14" y="20" width="2" height="24" fill="#222222"/>
  <rect x="48" y="20" width="2" height="24" fill="#222222"/>
  <rect x="6" y="28" width="2" height="8" fill="#222222"/>
  <rect x="56" y="28" width="2" height="8" fill="#222222"/>
  <rect x="8" y="22" width="8" height="2" fill="#222222"/>
  <rect x="8" y="40" width="8" height="2" fill="#222222"/>
  <rect x="48" y="22" width="8" height="2" fill="#222222"/>
  <rect x="48" y="40" width="8" height="2" fill="#222222"/>
  
  <!-- AI元素 -->
  <rect x="26" y="14" width="12" height="2" fill="#4CAF50"/>
  <rect x="26" y="16" width="2" height="4" fill="#4CAF50"/>
  <rect x="36" y="16" width="2" height="4" fill="#4CAF50"/>
  <rect x="28" y="16" width="8" height="4" fill="#4CAF50" opacity="0.7"/>
</svg>